Coordinates
version=1
nRows=23
nColumns=23
inDegrees=yes

Units are S.I. units (second, meters, Newtons, ...)
If the header above contains a line with 'inDegrees', this indicates whether rotational values are in degrees (yes) or radians (no).

endheader
time	pelvis_tilt	pelvis_list	pelvis_rotation	pelvis_tx	pelvis_ty	pelvis_tz	hip_flexion_r	hip_adduction_r	hip_rotation_r	knee_angle_r	knee_angle_r_beta	ankle_angle_r	subtalar_angle_r	mtp_angle_r	hip_flexion_l	hip_adduction_l	hip_rotation_l	knee_angle_l	knee_angle_l_beta	ankle_angle_l	subtalar_angle_l	mtp_angle_l
     15.00000000	     -2.77981634	     -2.26000974	     -6.66796795	      2.11502916	      0.96481805	      1.11509186	      9.32584555	      5.25713793	     -2.25115690	     40.47355982	      0.70639688	     27.76997099	     -0.96376806	      0.00000000	     30.60277401	     -9.05639490	     -1.26635882	     99.01267294	      1.72809714	      0.69079102	     -6.79048142	      0.00000000
     15.00666667	     -2.71763352	     -1.57470407	     -6.45285499	      2.11610521	      0.96785976	      1.11463417	      6.87653924	      4.23641722	     -2.39582212	     38.68814734	      0.67523555	     27.44350096	     -0.10541041	      0.00000000	     31.78458614	     -8.25206849	     -1.45301475	     97.28485105	      1.69794096	      1.32026698	     -6.81473746	      0.00000000
     15.01333333	     -2.74806829	     -0.83424485	     -6.22433469	      2.11740788	      0.97111600	      1.11414278	      4.51065177	      3.18085187	     -2.60216376	     36.80560147	      0.64237893	     26.78284364	      0.73005855	      0.00000000	     32.90654316	     -7.36892748	     -1.71295798	     95.27037487	      1.66278172	      1.86452627	     -6.86757692	      0.00000000
     15.02000000	     -3.02745269	      0.00070305	     -6.01380485	      2.11889687	      0.97429054	      1.11357754	      2.45552330	      2.05039510	     -2.86347437	     34.92086584	      0.60948409	     25.58362382	      1.35469684	      0.00000000	     34.14942792	     -6.40450278	     -2.08125082	     92.99616369	      1.62308925	      2.37146631	     -6.88266412	      0.00000000
     15.02666667	     -2.91884993	      0.69426613	     -5.66326012	      2.12090517	      0.97831011	      1.11282925	     -0.19369003	      1.05469764	     -3.34659937	     32.68187892	      0.57040639	     24.06012526	      2.29472808	      0.00000000	     34.76693941	     -5.43216692	     -2.32755885	     90.41253975	      1.57799650	      2.78676763	     -7.02991299	      0.00000000
     15.03333333	     -3.13521617	      1.45712853	     -5.32488280	      2.12295679	      0.98202184	      1.11199263	     -2.39110043	      0.04417714	     -3.86053357	     30.53864225	      0.53299986	     21.95623223	      2.89159491	      0.00000000	     35.60535427	     -4.39433351	     -2.61864694	     87.60835137	      1.52905418	      3.14650972	     -7.14455021	      0.00000000
     15.04000000	     -3.81211599	      2.24897814	     -5.07502692	      2.12484295	      0.98526101	      1.11119642	     -3.90086340	     -0.97346210	     -4.43226847	     28.64260762	      0.49990781	     19.43952148	      3.36001156	      0.00000000	     36.82571161	     -3.39744658	     -2.99014491	     84.60255649	      1.47659317	      3.48913099	     -7.13747734	      0.00000000
     15.04666667	     -4.23439513	      2.96331093	     -4.64763819	      2.12707058	      0.98891898	      1.11020825	     -5.75681507	     -1.86887494	     -5.20426796	     26.57281238	      0.46378307	     16.46266767	      3.89238094	      0.00000000	     37.59341627	     -2.33279672	     -3.20898688	     81.32531189	      1.41939446	      3.72340648	     -7.27166461	      0.00000000
     15.05333333	     -4.37297556	      3.50681720	     -4.12469155	      2.12956902	      0.99306836	      1.10907533	     -7.99600501	     -2.50605984	     -6.01007347	     24.30255306	      0.42415957	     13.28780696	      4.24000033	      0.00000000	     37.86873737	     -1.29235552	     -3.22995079	     77.77960797	      1.35751025	      3.90743671	     -7.53112004	      0.00000000
     15.06000000	     -4.93012546	      4.03427294	     -3.71911557	      2.13178976	      0.99662180	      1.10805625	     -9.50291814	     -3.12441215	     -6.79882574	     22.43777551	      0.39161306	      9.71178241	      4.51493867	      0.00000000	     38.47811840	     -0.37610365	     -3.33847314	     74.05881191	      1.29257011	      4.08667172	     -7.55481655	      0.00000000
     15.06666667	     -5.41572743	      4.41413082	     -3.35339900	      2.13396323	      1.00023160	      1.10712400	    -10.98265791	     -3.53112863	     -7.42810748	     20.65301341	      0.36046308	      5.90042350	      4.50113057	      0.00000000	     38.85694150	      0.35722080	     -3.44892729	     70.12540853	      1.22391927	      4.21603507	     -7.60791411	      0.00000000
     15.07333333	     -6.08035180	      4.75681998	     -2.90436727	      2.13608014	      1.00351124	      1.10604748	    -12.06288180	     -3.91940962	     -8.33112888	     19.22315488	      0.33550735	      2.11319105	      4.61965203	      0.00000000	     39.29933640	      1.10934498	     -3.49032775	     65.98471977	      1.15165062	      4.38972506	     -7.53009985	      0.00000000
     15.08000000	     -6.67194253	      4.95882043	     -2.50715553	      2.13809548	      1.00676087	      1.10505319	    -13.03527699	     -4.15435545	     -9.12770914	     18.04455959	      0.31493698	     -1.69426321	      4.55118598	      0.00000000	     39.51266717	      1.67768060	     -3.56851187	     61.64918711	      1.07598130	      4.57337564	     -7.33834784	      0.00000000
     15.08666667	     -7.22924453	      5.10086146	     -2.06595770	      2.14007467	      1.00982679	      1.10401472	    -13.86570958	     -4.32428698	     -9.96613553	     17.17397385	      0.29974239	     -5.34695443	      4.34580874	      0.00000000	     39.55270743	      2.20737365	     -3.65886371	     57.14003866	      0.99728181	      4.83451565	     -6.91635805	      0.00000000
     15.09333333	     -7.77378638	      5.17922739	     -1.62630801	      2.14195294	      1.01267242	      1.10292219	    -14.49181000	     -4.44823853	    -10.79776780	     16.67717109	      0.29107155	     -8.63029245	      4.10240993	      0.00000000	     39.44514549	      2.66470122	     -3.82871373	     52.47539506	      0.91586842	      5.23668198	     -6.17801283	      0.00000000
     15.10000000	     -8.22091705	      5.19851032	     -1.18840872	      2.14374737	      1.01527651	      1.10178768	    -15.01328733	     -4.53562922	    -11.60824694	     16.57082483	      0.28921545	    -11.51195867	      3.72498733	      0.00000000	     39.11437226	      3.05491219	     -4.10482382	     47.71113567	      0.83271641	      5.74735024	     -5.12184420	      0.00000000
     15.10666667	     -8.67801272	      5.18896780	     -0.72489094	      2.14535650	      1.01740958	      1.10057008	    -15.27173608	     -4.63482790	    -12.43203363	     16.96652835	      0.29612178	    -13.90717956	      3.25259457	      0.00000000	     38.70546161	      3.44560020	     -4.45401596	     42.90768958	      0.74888046	      6.36068955	     -3.73048427	      0.00000000
     15.11333333	     -8.97040765	      5.18896993	     -0.26433374	      2.14684900	      1.01926839	      1.09924273	    -15.52319545	     -4.75746624	    -13.12431758	     17.73910347	      0.30960576	    -15.75121356	      2.63886772	      0.00000000	     38.02866695	      3.89127244	     -4.87267420	     38.09638550	      0.66490736	      7.09341862	     -2.04420285	      0.00000000
     15.12000000	     -8.93870575	      5.22388491	      0.12632663	      2.14819807	      1.02101595	      1.09793053	    -15.92299831	     -4.93706459	    -13.61324709	     18.90792487	      0.33000554	    -16.99231642	      1.99168969	      0.00000000	     36.93426074	      4.35329923	     -5.48820697	     33.36916823	      0.58240185	      7.94858961	      0.09427377	      0.00000000
     15.12666667	     -8.97807266	      5.26522792	      0.54227120	      2.14920364	      1.02208377	      1.09641716	    -15.98225196	     -5.16870379	    -14.00010962	     20.63414975	      0.36013385	    -17.70111811	      1.21652483	      0.00000000	     35.91228279	      4.91472390	     -6.00621576	     28.83859189	      0.50332838	      8.78215807	      2.27678601	      0.00000000
     15.13333333	     -9.01932218	      5.31435609	      1.00538500	      2.14986827	      1.02255041	      1.09477688	    -15.82304887	     -5.39935231	    -14.18002939	     22.81540709	      0.39820397	    -17.96270794	      0.15919267	      0.00000000	     34.91052452	      5.59601113	     -6.28485182	     24.58239387	      0.42904371	      9.51747390	      4.22882774	      0.00000000
     15.14000000	     -8.90376851	      5.39820841	      1.39476586	      2.15015823	      1.02267072	      1.09320947	    -15.59267703	     -5.67513117	    -14.09159127	     25.43539764	      0.44393144	    -17.78164535	     -0.86876755	      0.00000000	     33.78439388	      6.29343919	     -6.53850323	     20.69157674	      0.36113614	     10.11017374	      6.02900486	      0.00000000
     15.14666667	     -8.72146052	      5.52729493	      1.68428624	      2.15003985	      1.02238153	      1.09182167	    -15.18317385	     -6.01465076	    -13.74220800	     28.48898764	      0.49722663	    -17.28684071	     -1.81203894	      0.00000000	     32.65988797	      6.97910805	     -6.79663666	     17.24314427	      0.30094964	     10.51727652	      7.46807460	      0.00000000
